<svg width="15" height="15" viewBox="0 0 15 15" fill="none" xmlns="http://www.w3.org/2000/svg">
<mask id="mask0_1322_1006" style="mask-type:alpha" maskUnits="userSpaceOnUse" x="6" y="3" width="3" height="10">
<path fill-rule="evenodd" clip-rule="evenodd" d="M7.46396 5.38398C8.11076 5.38398 8.63996 4.85478 8.63996 4.20798C8.63996 3.56118 8.11076 3.03198 7.46396 3.03198C6.81716 3.03198 6.28796 3.56118 6.28796 4.20798C6.28796 4.85478 6.81716 5.38398 7.46396 5.38398ZM7.46398 6.56C6.81718 6.56 6.28798 7.0892 6.28798 7.736C6.28798 8.3828 6.81718 8.912 7.46398 8.912C8.11078 8.912 8.63998 8.3828 8.63998 7.736C8.63998 7.0892 8.11078 6.56 7.46398 6.56ZM6.28798 11.264C6.28798 10.6172 6.81718 10.088 7.46398 10.088C8.11078 10.088 8.63998 10.6172 8.63998 11.264C8.63998 11.9108 8.11078 12.44 7.46398 12.44C6.81718 12.44 6.28798 11.9108 6.28798 11.264Z" fill="black"/>
</mask>
<g mask="url(#mask0_1322_1006)">
<rect x="0.407959" y="0.679993" width="14.112" height="14.112" fill="#8F8F8F"/>
</g>
</svg>
