<svg width="36" height="36" viewBox="0 0 36 36" fill="none" xmlns="http://www.w3.org/2000/svg">
<mask id="mask0_1271_5701" style="mask-type:alpha" maskUnits="userSpaceOnUse" x="6" y="5" width="25" height="25">
<path fill-rule="evenodd" clip-rule="evenodd" d="M18.3886 5.87048C15.1451 5.87048 12.5181 8.49753 12.5181 11.741C12.5181 14.9844 15.1451 17.6115 18.3886 17.6115C21.632 17.6115 24.259 14.9844 24.259 11.741C24.259 8.49753 21.632 5.87048 18.3886 5.87048ZM21.4706 11.741C21.4706 10.0385 20.091 8.65896 18.3886 8.65896C16.6861 8.65896 15.3066 10.0385 15.3066 11.741C15.3066 13.4434 16.6861 14.823 18.3886 14.823C20.091 14.823 21.4706 13.4434 21.4706 11.741ZM27.341 24.9496C27.341 24.0103 22.7474 21.8676 18.3886 21.8676C14.0297 21.8676 9.43606 24.0103 9.43606 24.9496V26.5639H27.341V24.9496ZM6.64758 24.9496C6.64758 21.0457 14.47 19.0791 18.3886 19.0791C22.3071 19.0791 30.1295 21.0457 30.1295 24.9496V27.8848C30.1295 28.692 29.4691 29.3524 28.6619 29.3524H8.1152C7.30801 29.3524 6.64758 28.692 6.64758 27.8848V24.9496Z" fill="black"/>
</mask>
<g mask="url(#mask0_1271_5701)">
<rect x="0.7771" width="35.2229" height="35.2229" fill="#8F8F8F"/>
</g>
</svg>
